<?xml version="1.0" encoding="utf-8" standalone="no"?>
<!DOCTYPE svg PUBLIC "-//W3C//DTD SVG 1.1//EN" "http://www.w3.org/Graphics/SVG/1.1/DTD/svg11.dtd">

<svg width="210mm" height="297mm" viewBox="0 0 210 297" xmlns="http://www.w3.org/2000/svg" xmlns:xlink="http://www.w3.org/1999/xlink" version="1.1" style="stroke:black; fill:none; stroke-width:0.5pt; stroke-linejoin:round; text-anchor:middle" font-family="Helvetica, Arial, FreeSans, Sans, sans, sans-serif">

<g>

<rect x="30.0" y="43.5" width="30.0" height="30.0" fill="black" stroke="none" />

<rect x="67.5" y="51.0" width="15.0" height="15.0" fill="black" stroke="none" />

<rect x="69.64285714285714" y="53.142857142857146" width="2.142857142857143" height="2.142857142857143" fill="white" stroke="white" stroke-width="0.3" />

<rect x="69.64285714285714" y="59.57142857142857" width="2.142857142857143" height="2.142857142857143" fill="white" stroke="white" stroke-width="0.3" />

<rect x="69.64285714285714" y="61.714285714285715" width="2.142857142857143" height="2.142857142857143" fill="white" stroke="white" stroke-width="0.3" />

<rect x="71.78571428571429" y="55.285714285714285" width="2.142857142857143" height="2.142857142857143" fill="white" stroke="white" stroke-width="0.3" />

<rect x="71.78571428571429" y="57.42857142857143" width="2.142857142857143" height="2.142857142857143" fill="white" stroke="white" stroke-width="0.3" />

<rect x="71.78571428571429" y="61.714285714285715" width="2.142857142857143" height="2.142857142857143" fill="white" stroke="white" stroke-width="0.3" />

<rect x="73.92857142857143" y="53.142857142857146" width="2.142857142857143" height="2.142857142857143" fill="white" stroke="white" stroke-width="0.3" />

<rect x="73.92857142857143" y="57.42857142857143" width="2.142857142857143" height="2.142857142857143" fill="white" stroke="white" stroke-width="0.3" />

<rect x="73.92857142857143" y="59.57142857142857" width="2.142857142857143" height="2.142857142857143" fill="white" stroke="white" stroke-width="0.3" />

<rect x="73.92857142857143" y="61.714285714285715" width="2.142857142857143" height="2.142857142857143" fill="white" stroke="white" stroke-width="0.3" />

<rect x="76.07142857142857" y="55.285714285714285" width="2.142857142857143" height="2.142857142857143" fill="white" stroke="white" stroke-width="0.3" />

<rect x="78.21428571428571" y="55.285714285714285" width="2.142857142857143" height="2.142857142857143" fill="white" stroke="white" stroke-width="0.3" />

<rect x="78.21428571428571" y="59.57142857142857" width="2.142857142857143" height="2.142857142857143" fill="white" stroke="white" stroke-width="0.3" />

<rect x="90.0" y="43.5" width="30.0" height="30.0" fill="black" stroke="none" />

<rect x="127.5" y="51.0" width="15.0" height="15.0" fill="black" stroke="none" />

<rect x="129.64285714285714" y="55.285714285714285" width="2.142857142857143" height="2.142857142857143" fill="white" stroke="white" stroke-width="0.3" />

<rect x="129.64285714285714" y="59.57142857142857" width="2.142857142857143" height="2.142857142857143" fill="white" stroke="white" stroke-width="0.3" />

<rect x="131.78571428571428" y="55.285714285714285" width="2.142857142857143" height="2.142857142857143" fill="white" stroke="white" stroke-width="0.3" />

<rect x="133.92857142857142" y="59.57142857142857" width="2.142857142857143" height="2.142857142857143" fill="white" stroke="white" stroke-width="0.3" />

<rect x="133.92857142857142" y="61.714285714285715" width="2.142857142857143" height="2.142857142857143" fill="white" stroke="white" stroke-width="0.3" />

<rect x="136.07142857142858" y="59.57142857142857" width="2.142857142857143" height="2.142857142857143" fill="white" stroke="white" stroke-width="0.3" />

<rect x="136.07142857142858" y="61.714285714285715" width="2.142857142857143" height="2.142857142857143" fill="white" stroke="white" stroke-width="0.3" />

<rect x="138.21428571428572" y="53.142857142857146" width="2.142857142857143" height="2.142857142857143" fill="white" stroke="white" stroke-width="0.3" />

<rect x="138.21428571428572" y="57.42857142857143" width="2.142857142857143" height="2.142857142857143" fill="white" stroke="white" stroke-width="0.3" />

<rect x="138.21428571428572" y="59.57142857142857" width="2.142857142857143" height="2.142857142857143" fill="white" stroke="white" stroke-width="0.3" />

<rect x="150.0" y="43.5" width="30.0" height="30.0" fill="black" stroke="none" />

<rect x="37.5" y="81.0" width="15.0" height="15.0" fill="black" stroke="none" />

<rect x="39.642857142857146" y="83.14285714285714" width="2.142857142857143" height="2.142857142857143" fill="white" stroke="white" stroke-width="0.3" />

<rect x="39.642857142857146" y="85.28571428571429" width="2.142857142857143" height="2.142857142857143" fill="white" stroke="white" stroke-width="0.3" />

<rect x="39.642857142857146" y="89.57142857142857" width="2.142857142857143" height="2.142857142857143" fill="white" stroke="white" stroke-width="0.3" />

<rect x="39.642857142857146" y="91.71428571428571" width="2.142857142857143" height="2.142857142857143" fill="white" stroke="white" stroke-width="0.3" />

<rect x="41.785714285714285" y="83.14285714285714" width="2.142857142857143" height="2.142857142857143" fill="white" stroke="white" stroke-width="0.3" />

<rect x="41.785714285714285" y="85.28571428571429" width="2.142857142857143" height="2.142857142857143" fill="white" stroke="white" stroke-width="0.3" />

<rect x="41.785714285714285" y="91.71428571428571" width="2.142857142857143" height="2.142857142857143" fill="white" stroke="white" stroke-width="0.3" />

<rect x="43.92857142857143" y="85.28571428571429" width="2.142857142857143" height="2.142857142857143" fill="white" stroke="white" stroke-width="0.3" />

<rect x="43.92857142857143" y="89.57142857142857" width="2.142857142857143" height="2.142857142857143" fill="white" stroke="white" stroke-width="0.3" />

<rect x="43.92857142857143" y="91.71428571428571" width="2.142857142857143" height="2.142857142857143" fill="white" stroke="white" stroke-width="0.3" />

<rect x="46.07142857142857" y="83.14285714285714" width="2.142857142857143" height="2.142857142857143" fill="white" stroke="white" stroke-width="0.3" />

<rect x="46.07142857142857" y="85.28571428571429" width="2.142857142857143" height="2.142857142857143" fill="white" stroke="white" stroke-width="0.3" />

<rect x="46.07142857142857" y="87.42857142857143" width="2.142857142857143" height="2.142857142857143" fill="white" stroke="white" stroke-width="0.3" />

<rect x="46.07142857142857" y="89.57142857142857" width="2.142857142857143" height="2.142857142857143" fill="white" stroke="white" stroke-width="0.3" />

<rect x="48.214285714285715" y="87.42857142857143" width="2.142857142857143" height="2.142857142857143" fill="white" stroke="white" stroke-width="0.3" />

<rect x="48.214285714285715" y="91.71428571428571" width="2.142857142857143" height="2.142857142857143" fill="white" stroke="white" stroke-width="0.3" />

<rect x="60.0" y="73.5" width="30.0" height="30.0" fill="black" stroke="none" />

<rect x="97.5" y="81.0" width="15.0" height="15.0" fill="black" stroke="none" />

<rect x="99.64285714285714" y="83.14285714285714" width="2.142857142857143" height="2.142857142857143" fill="white" stroke="white" stroke-width="0.3" />

<rect x="99.64285714285714" y="91.71428571428571" width="2.142857142857143" height="2.142857142857143" fill="white" stroke="white" stroke-width="0.3" />

<rect x="101.78571428571429" y="89.57142857142857" width="2.142857142857143" height="2.142857142857143" fill="white" stroke="white" stroke-width="0.3" />

<rect x="103.92857142857143" y="85.28571428571429" width="2.142857142857143" height="2.142857142857143" fill="white" stroke="white" stroke-width="0.3" />

<rect x="103.92857142857143" y="87.42857142857143" width="2.142857142857143" height="2.142857142857143" fill="white" stroke="white" stroke-width="0.3" />

<rect x="103.92857142857143" y="89.57142857142857" width="2.142857142857143" height="2.142857142857143" fill="white" stroke="white" stroke-width="0.3" />

<rect x="103.92857142857143" y="91.71428571428571" width="2.142857142857143" height="2.142857142857143" fill="white" stroke="white" stroke-width="0.3" />

<rect x="106.07142857142857" y="85.28571428571429" width="2.142857142857143" height="2.142857142857143" fill="white" stroke="white" stroke-width="0.3" />

<rect x="106.07142857142857" y="89.57142857142857" width="2.142857142857143" height="2.142857142857143" fill="white" stroke="white" stroke-width="0.3" />

<rect x="106.07142857142857" y="91.71428571428571" width="2.142857142857143" height="2.142857142857143" fill="white" stroke="white" stroke-width="0.3" />

<rect x="108.21428571428571" y="85.28571428571429" width="2.142857142857143" height="2.142857142857143" fill="white" stroke="white" stroke-width="0.3" />

<rect x="108.21428571428571" y="87.42857142857143" width="2.142857142857143" height="2.142857142857143" fill="white" stroke="white" stroke-width="0.3" />

<rect x="108.21428571428571" y="89.57142857142857" width="2.142857142857143" height="2.142857142857143" fill="white" stroke="white" stroke-width="0.3" />

<rect x="108.21428571428571" y="91.71428571428571" width="2.142857142857143" height="2.142857142857143" fill="white" stroke="white" stroke-width="0.3" />

<rect x="120.0" y="73.5" width="30.0" height="30.0" fill="black" stroke="none" />

<rect x="157.5" y="81.0" width="15.0" height="15.0" fill="black" stroke="none" />

<rect x="159.64285714285714" y="83.14285714285714" width="2.142857142857143" height="2.142857142857143" fill="white" stroke="white" stroke-width="0.3" />

<rect x="159.64285714285714" y="85.28571428571429" width="2.142857142857143" height="2.142857142857143" fill="white" stroke="white" stroke-width="0.3" />

<rect x="161.78571428571428" y="83.14285714285714" width="2.142857142857143" height="2.142857142857143" fill="white" stroke="white" stroke-width="0.3" />

<rect x="161.78571428571428" y="85.28571428571429" width="2.142857142857143" height="2.142857142857143" fill="white" stroke="white" stroke-width="0.3" />

<rect x="161.78571428571428" y="87.42857142857143" width="2.142857142857143" height="2.142857142857143" fill="white" stroke="white" stroke-width="0.3" />

<rect x="161.78571428571428" y="89.57142857142857" width="2.142857142857143" height="2.142857142857143" fill="white" stroke="white" stroke-width="0.3" />

<rect x="163.92857142857142" y="85.28571428571429" width="2.142857142857143" height="2.142857142857143" fill="white" stroke="white" stroke-width="0.3" />

<rect x="163.92857142857142" y="87.42857142857143" width="2.142857142857143" height="2.142857142857143" fill="white" stroke="white" stroke-width="0.3" />

<rect x="163.92857142857142" y="91.71428571428571" width="2.142857142857143" height="2.142857142857143" fill="white" stroke="white" stroke-width="0.3" />

<rect x="166.07142857142858" y="83.14285714285714" width="2.142857142857143" height="2.142857142857143" fill="white" stroke="white" stroke-width="0.3" />

<rect x="168.21428571428572" y="85.28571428571429" width="2.142857142857143" height="2.142857142857143" fill="white" stroke="white" stroke-width="0.3" />

<rect x="168.21428571428572" y="87.42857142857143" width="2.142857142857143" height="2.142857142857143" fill="white" stroke="white" stroke-width="0.3" />

<rect x="168.21428571428572" y="89.57142857142857" width="2.142857142857143" height="2.142857142857143" fill="white" stroke="white" stroke-width="0.3" />

<rect x="30.0" y="103.5" width="30.0" height="30.0" fill="black" stroke="none" />

<rect x="67.5" y="111.0" width="15.0" height="15.0" fill="black" stroke="none" />

<rect x="69.64285714285714" y="113.14285714285714" width="2.142857142857143" height="2.142857142857143" fill="white" stroke="white" stroke-width="0.3" />

<rect x="71.78571428571429" y="113.14285714285714" width="2.142857142857143" height="2.142857142857143" fill="white" stroke="white" stroke-width="0.3" />

<rect x="71.78571428571429" y="115.28571428571429" width="2.142857142857143" height="2.142857142857143" fill="white" stroke="white" stroke-width="0.3" />

<rect x="71.78571428571429" y="121.71428571428571" width="2.142857142857143" height="2.142857142857143" fill="white" stroke="white" stroke-width="0.3" />

<rect x="73.92857142857143" y="113.14285714285714" width="2.142857142857143" height="2.142857142857143" fill="white" stroke="white" stroke-width="0.3" />

<rect x="73.92857142857143" y="121.71428571428571" width="2.142857142857143" height="2.142857142857143" fill="white" stroke="white" stroke-width="0.3" />

<rect x="76.07142857142857" y="117.42857142857143" width="2.142857142857143" height="2.142857142857143" fill="white" stroke="white" stroke-width="0.3" />

<rect x="78.21428571428571" y="113.14285714285714" width="2.142857142857143" height="2.142857142857143" fill="white" stroke="white" stroke-width="0.3" />

<rect x="78.21428571428571" y="119.57142857142857" width="2.142857142857143" height="2.142857142857143" fill="white" stroke="white" stroke-width="0.3" />

<rect x="78.21428571428571" y="121.71428571428571" width="2.142857142857143" height="2.142857142857143" fill="white" stroke="white" stroke-width="0.3" />

<rect x="90.0" y="103.5" width="30.0" height="30.0" fill="black" stroke="none" />

<rect x="127.5" y="111.0" width="15.0" height="15.0" fill="black" stroke="none" />

<rect x="129.64285714285714" y="117.42857142857143" width="2.142857142857143" height="2.142857142857143" fill="white" stroke="white" stroke-width="0.3" />

<rect x="129.64285714285714" y="119.57142857142857" width="2.142857142857143" height="2.142857142857143" fill="white" stroke="white" stroke-width="0.3" />

<rect x="131.78571428571428" y="113.14285714285714" width="2.142857142857143" height="2.142857142857143" fill="white" stroke="white" stroke-width="0.3" />

<rect x="131.78571428571428" y="119.57142857142857" width="2.142857142857143" height="2.142857142857143" fill="white" stroke="white" stroke-width="0.3" />

<rect x="131.78571428571428" y="121.71428571428571" width="2.142857142857143" height="2.142857142857143" fill="white" stroke="white" stroke-width="0.3" />

<rect x="133.92857142857142" y="113.14285714285714" width="2.142857142857143" height="2.142857142857143" fill="white" stroke="white" stroke-width="0.3" />

<rect x="133.92857142857142" y="115.28571428571429" width="2.142857142857143" height="2.142857142857143" fill="white" stroke="white" stroke-width="0.3" />

<rect x="133.92857142857142" y="117.42857142857143" width="2.142857142857143" height="2.142857142857143" fill="white" stroke="white" stroke-width="0.3" />

<rect x="133.92857142857142" y="119.57142857142857" width="2.142857142857143" height="2.142857142857143" fill="white" stroke="white" stroke-width="0.3" />

<rect x="133.92857142857142" y="121.71428571428571" width="2.142857142857143" height="2.142857142857143" fill="white" stroke="white" stroke-width="0.3" />

<rect x="136.07142857142858" y="115.28571428571429" width="2.142857142857143" height="2.142857142857143" fill="white" stroke="white" stroke-width="0.3" />

<rect x="136.07142857142858" y="119.57142857142857" width="2.142857142857143" height="2.142857142857143" fill="white" stroke="white" stroke-width="0.3" />

<rect x="138.21428571428572" y="113.14285714285714" width="2.142857142857143" height="2.142857142857143" fill="white" stroke="white" stroke-width="0.3" />

<rect x="138.21428571428572" y="115.28571428571429" width="2.142857142857143" height="2.142857142857143" fill="white" stroke="white" stroke-width="0.3" />

<rect x="138.21428571428572" y="117.42857142857143" width="2.142857142857143" height="2.142857142857143" fill="white" stroke="white" stroke-width="0.3" />

<rect x="138.21428571428572" y="119.57142857142857" width="2.142857142857143" height="2.142857142857143" fill="white" stroke="white" stroke-width="0.3" />

<rect x="150.0" y="103.5" width="30.0" height="30.0" fill="black" stroke="none" />

<rect x="37.5" y="141.0" width="15.0" height="15.0" fill="black" stroke="none" />

<rect x="41.785714285714285" y="143.14285714285714" width="2.142857142857143" height="2.142857142857143" fill="white" stroke="white" stroke-width="0.3" />

<rect x="41.785714285714285" y="151.71428571428572" width="2.142857142857143" height="2.142857142857143" fill="white" stroke="white" stroke-width="0.3" />

<rect x="43.92857142857143" y="143.14285714285714" width="2.142857142857143" height="2.142857142857143" fill="white" stroke="white" stroke-width="0.3" />

<rect x="43.92857142857143" y="145.28571428571428" width="2.142857142857143" height="2.142857142857143" fill="white" stroke="white" stroke-width="0.3" />

<rect x="43.92857142857143" y="147.42857142857142" width="2.142857142857143" height="2.142857142857143" fill="white" stroke="white" stroke-width="0.3" />

<rect x="46.07142857142857" y="143.14285714285714" width="2.142857142857143" height="2.142857142857143" fill="white" stroke="white" stroke-width="0.3" />

<rect x="46.07142857142857" y="149.57142857142858" width="2.142857142857143" height="2.142857142857143" fill="white" stroke="white" stroke-width="0.3" />

<rect x="46.07142857142857" y="151.71428571428572" width="2.142857142857143" height="2.142857142857143" fill="white" stroke="white" stroke-width="0.3" />

<rect x="48.214285714285715" y="147.42857142857142" width="2.142857142857143" height="2.142857142857143" fill="white" stroke="white" stroke-width="0.3" />

<rect x="48.214285714285715" y="149.57142857142858" width="2.142857142857143" height="2.142857142857143" fill="white" stroke="white" stroke-width="0.3" />

<rect x="48.214285714285715" y="151.71428571428572" width="2.142857142857143" height="2.142857142857143" fill="white" stroke="white" stroke-width="0.3" />

<rect x="60.0" y="133.5" width="30.0" height="30.0" fill="black" stroke="none" />

<rect x="97.5" y="141.0" width="15.0" height="15.0" fill="black" stroke="none" />

<rect x="99.64285714285714" y="143.14285714285714" width="2.142857142857143" height="2.142857142857143" fill="white" stroke="white" stroke-width="0.3" />

<rect x="99.64285714285714" y="145.28571428571428" width="2.142857142857143" height="2.142857142857143" fill="white" stroke="white" stroke-width="0.3" />

<rect x="99.64285714285714" y="147.42857142857142" width="2.142857142857143" height="2.142857142857143" fill="white" stroke="white" stroke-width="0.3" />

<rect x="99.64285714285714" y="151.71428571428572" width="2.142857142857143" height="2.142857142857143" fill="white" stroke="white" stroke-width="0.3" />

<rect x="101.78571428571429" y="145.28571428571428" width="2.142857142857143" height="2.142857142857143" fill="white" stroke="white" stroke-width="0.3" />

<rect x="101.78571428571429" y="147.42857142857142" width="2.142857142857143" height="2.142857142857143" fill="white" stroke="white" stroke-width="0.3" />

<rect x="101.78571428571429" y="149.57142857142858" width="2.142857142857143" height="2.142857142857143" fill="white" stroke="white" stroke-width="0.3" />

<rect x="106.07142857142857" y="145.28571428571428" width="2.142857142857143" height="2.142857142857143" fill="white" stroke="white" stroke-width="0.3" />

<rect x="106.07142857142857" y="151.71428571428572" width="2.142857142857143" height="2.142857142857143" fill="white" stroke="white" stroke-width="0.3" />

<rect x="108.21428571428571" y="149.57142857142858" width="2.142857142857143" height="2.142857142857143" fill="white" stroke="white" stroke-width="0.3" />

<rect x="120.0" y="133.5" width="30.0" height="30.0" fill="black" stroke="none" />

<rect x="157.5" y="141.0" width="15.0" height="15.0" fill="black" stroke="none" />

<rect x="159.64285714285714" y="143.14285714285714" width="2.142857142857143" height="2.142857142857143" fill="white" stroke="white" stroke-width="0.3" />

<rect x="159.64285714285714" y="149.57142857142858" width="2.142857142857143" height="2.142857142857143" fill="white" stroke="white" stroke-width="0.3" />

<rect x="161.78571428571428" y="147.42857142857142" width="2.142857142857143" height="2.142857142857143" fill="white" stroke="white" stroke-width="0.3" />

<rect x="161.78571428571428" y="149.57142857142858" width="2.142857142857143" height="2.142857142857143" fill="white" stroke="white" stroke-width="0.3" />

<rect x="163.92857142857142" y="147.42857142857142" width="2.142857142857143" height="2.142857142857143" fill="white" stroke="white" stroke-width="0.3" />

<rect x="163.92857142857142" y="149.57142857142858" width="2.142857142857143" height="2.142857142857143" fill="white" stroke="white" stroke-width="0.3" />

<rect x="163.92857142857142" y="151.71428571428572" width="2.142857142857143" height="2.142857142857143" fill="white" stroke="white" stroke-width="0.3" />

<rect x="166.07142857142858" y="143.14285714285714" width="2.142857142857143" height="2.142857142857143" fill="white" stroke="white" stroke-width="0.3" />

<rect x="166.07142857142858" y="145.28571428571428" width="2.142857142857143" height="2.142857142857143" fill="white" stroke="white" stroke-width="0.3" />

<rect x="166.07142857142858" y="147.42857142857142" width="2.142857142857143" height="2.142857142857143" fill="white" stroke="white" stroke-width="0.3" />

<rect x="168.21428571428572" y="143.14285714285714" width="2.142857142857143" height="2.142857142857143" fill="white" stroke="white" stroke-width="0.3" />

<rect x="168.21428571428572" y="147.42857142857142" width="2.142857142857143" height="2.142857142857143" fill="white" stroke="white" stroke-width="0.3" />

<rect x="168.21428571428572" y="149.57142857142858" width="2.142857142857143" height="2.142857142857143" fill="white" stroke="white" stroke-width="0.3" />

<rect x="168.21428571428572" y="151.71428571428572" width="2.142857142857143" height="2.142857142857143" fill="white" stroke="white" stroke-width="0.3" />

<rect x="30.0" y="163.5" width="30.0" height="30.0" fill="black" stroke="none" />

<rect x="67.5" y="171.0" width="15.0" height="15.0" fill="black" stroke="none" />

<rect x="69.64285714285714" y="173.14285714285714" width="2.142857142857143" height="2.142857142857143" fill="white" stroke="white" stroke-width="0.3" />

<rect x="69.64285714285714" y="175.28571428571428" width="2.142857142857143" height="2.142857142857143" fill="white" stroke="white" stroke-width="0.3" />

<rect x="69.64285714285714" y="177.42857142857142" width="2.142857142857143" height="2.142857142857143" fill="white" stroke="white" stroke-width="0.3" />

<rect x="69.64285714285714" y="179.57142857142858" width="2.142857142857143" height="2.142857142857143" fill="white" stroke="white" stroke-width="0.3" />

<rect x="71.78571428571429" y="175.28571428571428" width="2.142857142857143" height="2.142857142857143" fill="white" stroke="white" stroke-width="0.3" />

<rect x="71.78571428571429" y="177.42857142857142" width="2.142857142857143" height="2.142857142857143" fill="white" stroke="white" stroke-width="0.3" />

<rect x="76.07142857142857" y="173.14285714285714" width="2.142857142857143" height="2.142857142857143" fill="white" stroke="white" stroke-width="0.3" />

<rect x="76.07142857142857" y="177.42857142857142" width="2.142857142857143" height="2.142857142857143" fill="white" stroke="white" stroke-width="0.3" />

<rect x="76.07142857142857" y="181.71428571428572" width="2.142857142857143" height="2.142857142857143" fill="white" stroke="white" stroke-width="0.3" />

<rect x="78.21428571428571" y="173.14285714285714" width="2.142857142857143" height="2.142857142857143" fill="white" stroke="white" stroke-width="0.3" />

<rect x="78.21428571428571" y="175.28571428571428" width="2.142857142857143" height="2.142857142857143" fill="white" stroke="white" stroke-width="0.3" />

<rect x="78.21428571428571" y="177.42857142857142" width="2.142857142857143" height="2.142857142857143" fill="white" stroke="white" stroke-width="0.3" />

<rect x="78.21428571428571" y="181.71428571428572" width="2.142857142857143" height="2.142857142857143" fill="white" stroke="white" stroke-width="0.3" />

<rect x="90.0" y="163.5" width="30.0" height="30.0" fill="black" stroke="none" />

<rect x="127.5" y="171.0" width="15.0" height="15.0" fill="black" stroke="none" />

<rect x="129.64285714285714" y="173.14285714285714" width="2.142857142857143" height="2.142857142857143" fill="white" stroke="white" stroke-width="0.3" />

<rect x="129.64285714285714" y="177.42857142857142" width="2.142857142857143" height="2.142857142857143" fill="white" stroke="white" stroke-width="0.3" />

<rect x="129.64285714285714" y="179.57142857142858" width="2.142857142857143" height="2.142857142857143" fill="white" stroke="white" stroke-width="0.3" />

<rect x="131.78571428571428" y="173.14285714285714" width="2.142857142857143" height="2.142857142857143" fill="white" stroke="white" stroke-width="0.3" />

<rect x="133.92857142857142" y="175.28571428571428" width="2.142857142857143" height="2.142857142857143" fill="white" stroke="white" stroke-width="0.3" />

<rect x="133.92857142857142" y="177.42857142857142" width="2.142857142857143" height="2.142857142857143" fill="white" stroke="white" stroke-width="0.3" />

<rect x="133.92857142857142" y="179.57142857142858" width="2.142857142857143" height="2.142857142857143" fill="white" stroke="white" stroke-width="0.3" />

<rect x="136.07142857142858" y="173.14285714285714" width="2.142857142857143" height="2.142857142857143" fill="white" stroke="white" stroke-width="0.3" />

<rect x="136.07142857142858" y="177.42857142857142" width="2.142857142857143" height="2.142857142857143" fill="white" stroke="white" stroke-width="0.3" />

<rect x="136.07142857142858" y="179.57142857142858" width="2.142857142857143" height="2.142857142857143" fill="white" stroke="white" stroke-width="0.3" />

<rect x="138.21428571428572" y="175.28571428571428" width="2.142857142857143" height="2.142857142857143" fill="white" stroke="white" stroke-width="0.3" />

<rect x="150.0" y="163.5" width="30.0" height="30.0" fill="black" stroke="none" />

<rect x="37.5" y="201.0" width="15.0" height="15.0" fill="black" stroke="none" />

<rect x="39.642857142857146" y="203.14285714285714" width="2.142857142857143" height="2.142857142857143" fill="white" stroke="white" stroke-width="0.3" />

<rect x="39.642857142857146" y="209.57142857142858" width="2.142857142857143" height="2.142857142857143" fill="white" stroke="white" stroke-width="0.3" />

<rect x="39.642857142857146" y="211.71428571428572" width="2.142857142857143" height="2.142857142857143" fill="white" stroke="white" stroke-width="0.3" />

<rect x="41.785714285714285" y="203.14285714285714" width="2.142857142857143" height="2.142857142857143" fill="white" stroke="white" stroke-width="0.3" />

<rect x="41.785714285714285" y="205.28571428571428" width="2.142857142857143" height="2.142857142857143" fill="white" stroke="white" stroke-width="0.3" />

<rect x="41.785714285714285" y="207.42857142857142" width="2.142857142857143" height="2.142857142857143" fill="white" stroke="white" stroke-width="0.3" />

<rect x="41.785714285714285" y="209.57142857142858" width="2.142857142857143" height="2.142857142857143" fill="white" stroke="white" stroke-width="0.3" />

<rect x="43.92857142857143" y="203.14285714285714" width="2.142857142857143" height="2.142857142857143" fill="white" stroke="white" stroke-width="0.3" />

<rect x="43.92857142857143" y="205.28571428571428" width="2.142857142857143" height="2.142857142857143" fill="white" stroke="white" stroke-width="0.3" />

<rect x="46.07142857142857" y="203.14285714285714" width="2.142857142857143" height="2.142857142857143" fill="white" stroke="white" stroke-width="0.3" />

<rect x="46.07142857142857" y="207.42857142857142" width="2.142857142857143" height="2.142857142857143" fill="white" stroke="white" stroke-width="0.3" />

<rect x="48.214285714285715" y="211.71428571428572" width="2.142857142857143" height="2.142857142857143" fill="white" stroke="white" stroke-width="0.3" />

<rect x="60.0" y="193.5" width="30.0" height="30.0" fill="black" stroke="none" />

<rect x="97.5" y="201.0" width="15.0" height="15.0" fill="black" stroke="none" />

<rect x="99.64285714285714" y="205.28571428571428" width="2.142857142857143" height="2.142857142857143" fill="white" stroke="white" stroke-width="0.3" />

<rect x="99.64285714285714" y="207.42857142857142" width="2.142857142857143" height="2.142857142857143" fill="white" stroke="white" stroke-width="0.3" />

<rect x="101.78571428571429" y="205.28571428571428" width="2.142857142857143" height="2.142857142857143" fill="white" stroke="white" stroke-width="0.3" />

<rect x="101.78571428571429" y="207.42857142857142" width="2.142857142857143" height="2.142857142857143" fill="white" stroke="white" stroke-width="0.3" />

<rect x="101.78571428571429" y="209.57142857142858" width="2.142857142857143" height="2.142857142857143" fill="white" stroke="white" stroke-width="0.3" />

<rect x="103.92857142857143" y="203.14285714285714" width="2.142857142857143" height="2.142857142857143" fill="white" stroke="white" stroke-width="0.3" />

<rect x="103.92857142857143" y="205.28571428571428" width="2.142857142857143" height="2.142857142857143" fill="white" stroke="white" stroke-width="0.3" />

<rect x="103.92857142857143" y="207.42857142857142" width="2.142857142857143" height="2.142857142857143" fill="white" stroke="white" stroke-width="0.3" />

<rect x="103.92857142857143" y="211.71428571428572" width="2.142857142857143" height="2.142857142857143" fill="white" stroke="white" stroke-width="0.3" />

<rect x="106.07142857142857" y="209.57142857142858" width="2.142857142857143" height="2.142857142857143" fill="white" stroke="white" stroke-width="0.3" />

<rect x="106.07142857142857" y="211.71428571428572" width="2.142857142857143" height="2.142857142857143" fill="white" stroke="white" stroke-width="0.3" />

<rect x="108.21428571428571" y="203.14285714285714" width="2.142857142857143" height="2.142857142857143" fill="white" stroke="white" stroke-width="0.3" />

<rect x="108.21428571428571" y="209.57142857142858" width="2.142857142857143" height="2.142857142857143" fill="white" stroke="white" stroke-width="0.3" />

<rect x="120.0" y="193.5" width="30.0" height="30.0" fill="black" stroke="none" />

<rect x="157.5" y="201.0" width="15.0" height="15.0" fill="black" stroke="none" />

<rect x="159.64285714285714" y="203.14285714285714" width="2.142857142857143" height="2.142857142857143" fill="white" stroke="white" stroke-width="0.3" />

<rect x="159.64285714285714" y="205.28571428571428" width="2.142857142857143" height="2.142857142857143" fill="white" stroke="white" stroke-width="0.3" />

<rect x="159.64285714285714" y="207.42857142857142" width="2.142857142857143" height="2.142857142857143" fill="white" stroke="white" stroke-width="0.3" />

<rect x="161.78571428571428" y="203.14285714285714" width="2.142857142857143" height="2.142857142857143" fill="white" stroke="white" stroke-width="0.3" />

<rect x="161.78571428571428" y="205.28571428571428" width="2.142857142857143" height="2.142857142857143" fill="white" stroke="white" stroke-width="0.3" />

<rect x="161.78571428571428" y="207.42857142857142" width="2.142857142857143" height="2.142857142857143" fill="white" stroke="white" stroke-width="0.3" />

<rect x="161.78571428571428" y="211.71428571428572" width="2.142857142857143" height="2.142857142857143" fill="white" stroke="white" stroke-width="0.3" />

<rect x="163.92857142857142" y="203.14285714285714" width="2.142857142857143" height="2.142857142857143" fill="white" stroke="white" stroke-width="0.3" />

<rect x="163.92857142857142" y="207.42857142857142" width="2.142857142857143" height="2.142857142857143" fill="white" stroke="white" stroke-width="0.3" />

<rect x="163.92857142857142" y="209.57142857142858" width="2.142857142857143" height="2.142857142857143" fill="white" stroke="white" stroke-width="0.3" />

<rect x="166.07142857142858" y="203.14285714285714" width="2.142857142857143" height="2.142857142857143" fill="white" stroke="white" stroke-width="0.3" />

<rect x="166.07142857142858" y="207.42857142857142" width="2.142857142857143" height="2.142857142857143" fill="white" stroke="white" stroke-width="0.3" />

<rect x="168.21428571428572" y="203.14285714285714" width="2.142857142857143" height="2.142857142857143" fill="white" stroke="white" stroke-width="0.3" />

<rect x="168.21428571428572" y="205.28571428571428" width="2.142857142857143" height="2.142857142857143" fill="white" stroke="white" stroke-width="0.3" />

<rect x="168.21428571428572" y="207.42857142857142" width="2.142857142857143" height="2.142857142857143" fill="white" stroke="white" stroke-width="0.3" />

<rect x="168.21428571428572" y="209.57142857142858" width="2.142857142857143" height="2.142857142857143" fill="white" stroke="white" stroke-width="0.3" />

<rect x="30.0" y="223.5" width="30.0" height="30.0" fill="black" stroke="none" />

<rect x="67.5" y="231.0" width="15.0" height="15.0" fill="black" stroke="none" />

<rect x="69.64285714285714" y="237.42857142857142" width="2.142857142857143" height="2.142857142857143" fill="white" stroke="white" stroke-width="0.3" />

<rect x="69.64285714285714" y="239.57142857142858" width="2.142857142857143" height="2.142857142857143" fill="white" stroke="white" stroke-width="0.3" />

<rect x="69.64285714285714" y="241.71428571428572" width="2.142857142857143" height="2.142857142857143" fill="white" stroke="white" stroke-width="0.3" />

<rect x="71.78571428571429" y="237.42857142857142" width="2.142857142857143" height="2.142857142857143" fill="white" stroke="white" stroke-width="0.3" />

<rect x="71.78571428571429" y="239.57142857142858" width="2.142857142857143" height="2.142857142857143" fill="white" stroke="white" stroke-width="0.3" />

<rect x="71.78571428571429" y="241.71428571428572" width="2.142857142857143" height="2.142857142857143" fill="white" stroke="white" stroke-width="0.3" />

<rect x="73.92857142857143" y="233.14285714285714" width="2.142857142857143" height="2.142857142857143" fill="white" stroke="white" stroke-width="0.3" />

<rect x="73.92857142857143" y="241.71428571428572" width="2.142857142857143" height="2.142857142857143" fill="white" stroke="white" stroke-width="0.3" />

<rect x="76.07142857142857" y="235.28571428571428" width="2.142857142857143" height="2.142857142857143" fill="white" stroke="white" stroke-width="0.3" />

<rect x="76.07142857142857" y="239.57142857142858" width="2.142857142857143" height="2.142857142857143" fill="white" stroke="white" stroke-width="0.3" />

<rect x="76.07142857142857" y="241.71428571428572" width="2.142857142857143" height="2.142857142857143" fill="white" stroke="white" stroke-width="0.3" />

<rect x="78.21428571428571" y="233.14285714285714" width="2.142857142857143" height="2.142857142857143" fill="white" stroke="white" stroke-width="0.3" />

<rect x="78.21428571428571" y="235.28571428571428" width="2.142857142857143" height="2.142857142857143" fill="white" stroke="white" stroke-width="0.3" />

<rect x="78.21428571428571" y="239.57142857142858" width="2.142857142857143" height="2.142857142857143" fill="white" stroke="white" stroke-width="0.3" />

<rect x="78.21428571428571" y="241.71428571428572" width="2.142857142857143" height="2.142857142857143" fill="white" stroke="white" stroke-width="0.3" />

<rect x="90.0" y="223.5" width="30.0" height="30.0" fill="black" stroke="none" />

<rect x="127.5" y="231.0" width="15.0" height="15.0" fill="black" stroke="none" />

<rect x="129.64285714285714" y="239.57142857142858" width="2.142857142857143" height="2.142857142857143" fill="white" stroke="white" stroke-width="0.3" />

<rect x="129.64285714285714" y="241.71428571428572" width="2.142857142857143" height="2.142857142857143" fill="white" stroke="white" stroke-width="0.3" />

<rect x="131.78571428571428" y="233.14285714285714" width="2.142857142857143" height="2.142857142857143" fill="white" stroke="white" stroke-width="0.3" />

<rect x="131.78571428571428" y="235.28571428571428" width="2.142857142857143" height="2.142857142857143" fill="white" stroke="white" stroke-width="0.3" />

<rect x="131.78571428571428" y="237.42857142857142" width="2.142857142857143" height="2.142857142857143" fill="white" stroke="white" stroke-width="0.3" />

<rect x="131.78571428571428" y="239.57142857142858" width="2.142857142857143" height="2.142857142857143" fill="white" stroke="white" stroke-width="0.3" />

<rect x="131.78571428571428" y="241.71428571428572" width="2.142857142857143" height="2.142857142857143" fill="white" stroke="white" stroke-width="0.3" />

<rect x="133.92857142857142" y="235.28571428571428" width="2.142857142857143" height="2.142857142857143" fill="white" stroke="white" stroke-width="0.3" />

<rect x="136.07142857142858" y="235.28571428571428" width="2.142857142857143" height="2.142857142857143" fill="white" stroke="white" stroke-width="0.3" />

<rect x="136.07142857142858" y="239.57142857142858" width="2.142857142857143" height="2.142857142857143" fill="white" stroke="white" stroke-width="0.3" />

<rect x="138.21428571428572" y="233.14285714285714" width="2.142857142857143" height="2.142857142857143" fill="white" stroke="white" stroke-width="0.3" />

<rect x="138.21428571428572" y="235.28571428571428" width="2.142857142857143" height="2.142857142857143" fill="white" stroke="white" stroke-width="0.3" />

<rect x="138.21428571428572" y="237.42857142857142" width="2.142857142857143" height="2.142857142857143" fill="white" stroke="white" stroke-width="0.3" />

<rect x="150.0" y="223.5" width="30.0" height="30.0" fill="black" stroke="none" />

</g>

</svg>

