<?xml version="1.0" encoding="utf-8" standalone="no"?>
<!DOCTYPE svg PUBLIC "-//W3C//DTD SVG 1.1//EN" "http://www.w3.org/Graphics/SVG/1.1/DTD/svg11.dtd">

<svg width="210mm" height="297mm" viewBox="0 0 210 297" xmlns="http://www.w3.org/2000/svg" xmlns:xlink="http://www.w3.org/1999/xlink" version="1.1" style="stroke:black; fill:none; stroke-width:0.5pt; stroke-linejoin:round; text-anchor:middle" font-family="Helvetica, Arial, FreeSans, Sans, sans, sans-serif">

<g>

<path d="M14.25,94.05 A6.05,6.05 0,0,1 20.3,88.0 A6.05,6.05 0,0,1 26.35,94.05 L26.35,100.1 L20.3,100.1 A6.05,6.05 0,0,1 14.25,94.05 " fill="black" stroke="none" />

<path d="M14.25,118.25 A6.05,6.05 0,0,1 20.3,112.2 L26.35,112.2 L26.35,118.25 L26.35,124.3 L20.3,124.3 A6.05,6.05 0,0,1 14.25,118.25 " fill="black" stroke="none" />

<path d="M14.25,142.45000000000002 A6.05,6.05 0,0,1 20.3,136.4 L26.35,136.4 L26.35,142.45000000000002 L26.35,148.5 L20.3,148.5 A6.05,6.05 0,0,1 14.25,142.45000000000002 " fill="black" stroke="none" />

<path d="M14.25,166.65 A6.05,6.05 0,0,1 20.3,160.6 L26.35,160.6 L26.35,166.65 L26.35,172.7 L20.3,172.7 A6.05,6.05 0,0,1 14.25,166.65 " fill="black" stroke="none" />

<path d="M14.25,190.85000000000002 A6.05,6.05 0,0,1 20.3,184.8 L26.35,184.8 L26.35,190.85000000000002 L26.35,196.9 L20.3,196.9 A6.05,6.05 0,0,1 14.25,190.85000000000002 " fill="black" stroke="none" />

<rect x="26.35" y="100.1" width="12.1" height="12.1" fill="black" stroke="none" />

<rect x="26.35" y="124.3" width="12.1" height="12.1" fill="black" stroke="none" />

<rect x="26.35" y="148.5" width="12.1" height="12.1" fill="black" stroke="none" />

<rect x="26.35" y="172.7" width="12.1" height="12.1" fill="black" stroke="none" />

<path d="M26.35,202.95 L26.35,196.89999999999998 L32.4,196.89999999999998 L38.45,196.89999999999998 L38.45,202.95 A6.05,6.05 0,0,1 32.4,208.99999999999997 A6.05,6.05 0,0,1 26.35,202.95 " fill="black" stroke="none" />

<path d="M38.45,94.05 A6.05,6.05 0,0,1 44.5,88.0 A6.05,6.05 0,0,1 50.550000000000004,94.05 L50.550000000000004,100.1 L44.5,100.1 L38.45,100.1 L38.45,94.05 " fill="black" stroke="none" />

<rect x="38.45" y="112.2" width="12.1" height="12.1" fill="black" stroke="none" />

<rect x="38.45" y="136.4" width="12.1" height="12.1" fill="black" stroke="none" />

<rect x="38.45" y="160.6" width="12.1" height="12.1" fill="black" stroke="none" />

<rect x="38.45" y="184.8" width="12.1" height="12.1" fill="black" stroke="none" />

<rect x="50.55" y="100.1" width="12.1" height="12.1" fill="black" stroke="none" />

<rect x="50.55" y="124.3" width="12.1" height="12.1" fill="black" stroke="none" />

<rect x="50.55" y="148.5" width="12.1" height="12.1" fill="black" stroke="none" />

<rect x="50.55" y="172.7" width="12.1" height="12.1" fill="black" stroke="none" />

<path d="M50.55,202.95 L50.55,196.89999999999998 L56.599999999999994,196.89999999999998 L62.65,196.89999999999998 L62.65,202.95 A6.05,6.05 0,0,1 56.599999999999994,208.99999999999997 A6.05,6.05 0,0,1 50.55,202.95 " fill="black" stroke="none" />

<path d="M62.65,94.05 A6.05,6.05 0,0,1 68.7,88.0 A6.05,6.05 0,0,1 74.75,94.05 L74.75,100.1 L68.7,100.1 L62.65,100.1 L62.65,94.05 " fill="black" stroke="none" />

<rect x="62.65" y="112.2" width="12.1" height="12.1" fill="black" stroke="none" />

<rect x="62.65" y="136.4" width="12.1" height="12.1" fill="black" stroke="none" />

<rect x="62.65" y="160.6" width="12.1" height="12.1" fill="black" stroke="none" />

<rect x="62.65" y="184.8" width="12.1" height="12.1" fill="black" stroke="none" />

<rect x="74.75" y="100.1" width="12.1" height="12.1" fill="black" stroke="none" />

<rect x="74.75" y="124.3" width="12.1" height="12.1" fill="black" stroke="none" />

<rect x="74.75" y="148.5" width="12.1" height="12.1" fill="black" stroke="none" />

<rect x="74.75" y="172.7" width="12.1" height="12.1" fill="black" stroke="none" />

<path d="M74.75,202.95 L74.75,196.89999999999998 L80.8,196.89999999999998 L86.85,196.89999999999998 L86.85,202.95 A6.05,6.05 0,0,1 80.8,208.99999999999997 A6.05,6.05 0,0,1 74.75,202.95 " fill="black" stroke="none" />

<path d="M86.85,94.05 A6.05,6.05 0,0,1 92.89999999999999,88.0 A6.05,6.05 0,0,1 98.94999999999999,94.05 L98.94999999999999,100.1 L92.89999999999999,100.1 L86.85,100.1 L86.85,94.05 " fill="black" stroke="none" />

<rect x="86.85" y="112.2" width="12.1" height="12.1" fill="black" stroke="none" />

<rect x="86.85" y="136.4" width="12.1" height="12.1" fill="black" stroke="none" />

<rect x="86.85" y="160.6" width="12.1" height="12.1" fill="black" stroke="none" />

<rect x="86.85" y="184.8" width="12.1" height="12.1" fill="black" stroke="none" />

<rect x="98.95" y="100.1" width="12.1" height="12.1" fill="black" stroke="none" />

<rect x="98.95" y="124.3" width="12.1" height="12.1" fill="black" stroke="none" />

<rect x="98.95" y="148.5" width="12.1" height="12.1" fill="black" stroke="none" />

<rect x="98.95" y="172.7" width="12.1" height="12.1" fill="black" stroke="none" />

<path d="M98.95,202.95 L98.95,196.89999999999998 L105.0,196.89999999999998 L111.05,196.89999999999998 L111.05,202.95 A6.05,6.05 0,0,1 105.0,208.99999999999997 A6.05,6.05 0,0,1 98.95,202.95 " fill="black" stroke="none" />

<path d="M111.05,94.05 A6.05,6.05 0,0,1 117.1,88.0 A6.05,6.05 0,0,1 123.14999999999999,94.05 L123.14999999999999,100.1 L117.1,100.1 L111.05,100.1 L111.05,94.05 " fill="black" stroke="none" />

<rect x="111.05" y="112.2" width="12.1" height="12.1" fill="black" stroke="none" />

<rect x="111.05" y="136.4" width="12.1" height="12.1" fill="black" stroke="none" />

<rect x="111.05" y="160.6" width="12.1" height="12.1" fill="black" stroke="none" />

<rect x="111.05" y="184.8" width="12.1" height="12.1" fill="black" stroke="none" />

<rect x="123.14999999999999" y="100.1" width="12.1" height="12.1" fill="black" stroke="none" />

<rect x="123.14999999999999" y="124.3" width="12.1" height="12.1" fill="black" stroke="none" />

<rect x="123.14999999999999" y="148.5" width="12.1" height="12.1" fill="black" stroke="none" />

<rect x="123.14999999999999" y="172.7" width="12.1" height="12.1" fill="black" stroke="none" />

<path d="M123.14999999999999,202.95 L123.14999999999999,196.89999999999998 L129.2,196.89999999999998 L135.25,196.89999999999998 L135.25,202.95 A6.05,6.05 0,0,1 129.2,208.99999999999997 A6.05,6.05 0,0,1 123.14999999999999,202.95 " fill="black" stroke="none" />

<path d="M135.25,94.05 A6.05,6.05 0,0,1 141.3,88.0 A6.05,6.05 0,0,1 147.35,94.05 L147.35,100.1 L141.3,100.1 L135.25,100.1 L135.25,94.05 " fill="black" stroke="none" />

<rect x="135.25" y="112.2" width="12.1" height="12.1" fill="black" stroke="none" />

<rect x="135.25" y="136.4" width="12.1" height="12.1" fill="black" stroke="none" />

<rect x="135.25" y="160.6" width="12.1" height="12.1" fill="black" stroke="none" />

<rect x="135.25" y="184.8" width="12.1" height="12.1" fill="black" stroke="none" />

<rect x="147.35" y="100.1" width="12.1" height="12.1" fill="black" stroke="none" />

<rect x="147.35" y="124.3" width="12.1" height="12.1" fill="black" stroke="none" />

<rect x="147.35" y="148.5" width="12.1" height="12.1" fill="black" stroke="none" />

<rect x="147.35" y="172.7" width="12.1" height="12.1" fill="black" stroke="none" />

<path d="M147.35,202.95 L147.35,196.89999999999998 L153.4,196.89999999999998 L159.45,196.89999999999998 L159.45,202.95 A6.05,6.05 0,0,1 153.4,208.99999999999997 A6.05,6.05 0,0,1 147.35,202.95 " fill="black" stroke="none" />

<path d="M159.45,94.05 A6.05,6.05 0,0,1 165.5,88.0 A6.05,6.05 0,0,1 171.54999999999998,94.05 L171.54999999999998,100.1 L165.5,100.1 L159.45,100.1 L159.45,94.05 " fill="black" stroke="none" />

<rect x="159.45" y="112.2" width="12.1" height="12.1" fill="black" stroke="none" />

<rect x="159.45" y="136.4" width="12.1" height="12.1" fill="black" stroke="none" />

<rect x="159.45" y="160.6" width="12.1" height="12.1" fill="black" stroke="none" />

<rect x="159.45" y="184.8" width="12.1" height="12.1" fill="black" stroke="none" />

<rect x="171.54999999999998" y="100.1" width="12.1" height="12.1" fill="black" stroke="none" />

<rect x="171.54999999999998" y="124.3" width="12.1" height="12.1" fill="black" stroke="none" />

<rect x="171.54999999999998" y="148.5" width="12.1" height="12.1" fill="black" stroke="none" />

<rect x="171.54999999999998" y="172.7" width="12.1" height="12.1" fill="black" stroke="none" />

<path d="M171.54999999999998,202.95 L171.54999999999998,196.89999999999998 L177.6,196.89999999999998 L183.64999999999998,196.89999999999998 L183.64999999999998,202.95 A6.05,6.05 0,0,1 177.6,208.99999999999997 A6.05,6.05 0,0,1 171.54999999999998,202.95 " fill="black" stroke="none" />

<path d="M183.65,94.05 A6.05,6.05 0,0,1 189.70000000000002,88.0 A6.05,6.05 0,0,1 195.75,94.05 A6.05,6.05 0,0,1 189.70000000000002,100.1 L183.65,100.1 L183.65,94.05 " fill="black" stroke="none" />

<path d="M183.65,118.25 L183.65,112.2 L189.70000000000002,112.2 A6.05,6.05 0,0,1 195.75,118.25 A6.05,6.05 0,0,1 189.70000000000002,124.3 L183.65,124.3 L183.65,118.25 " fill="black" stroke="none" />

<path d="M183.65,142.45000000000002 L183.65,136.4 L189.70000000000002,136.4 A6.05,6.05 0,0,1 195.75,142.45000000000002 A6.05,6.05 0,0,1 189.70000000000002,148.5 L183.65,148.5 L183.65,142.45000000000002 " fill="black" stroke="none" />

<path d="M183.65,166.65 L183.65,160.6 L189.70000000000002,160.6 A6.05,6.05 0,0,1 195.75,166.65 A6.05,6.05 0,0,1 189.70000000000002,172.7 L183.65,172.7 L183.65,166.65 " fill="black" stroke="none" />

<path d="M183.65,190.85000000000002 L183.65,184.8 L189.70000000000002,184.8 A6.05,6.05 0,0,1 195.75,190.85000000000002 A6.05,6.05 0,0,1 189.70000000000002,196.9 L183.65,196.9 L183.65,190.85000000000002 " fill="black" stroke="none" />

<circle cx="105.0" cy="142.45" r="2.057" fill="black" stroke="none" />

<circle cx="105.0" cy="154.54999999999998" r="2.057" fill="white" stroke="none" />

<circle cx="117.1" cy="154.54999999999998" r="2.057" fill="black" stroke="none" />

</g>

</svg>

